<svg width="25" height="45" viewBox="0 0 25 45" fill="none" xmlns="http://www.w3.org/2000/svg">
<path d="M7.99999 37.9999C7.99999 41.9999 12 43.9999 12 43.9999C12 43.9999 16 41.9999 16 37.9999M4.99999 22.9999C-2.00001 27.9999 1.99999 35.9999 1.99999 35.9999L7.99999 31.9999M19.862 22.9999C26.862 27.9999 22.862 35.9999 22.862 35.9999L16.862 31.9999M20.122 18.8079L16 31.9999H7.99999L3.87799 18.8079C3.29848 16.9546 3.17736 14.9884 3.52502 13.078C3.87268 11.1676 4.67873 9.37016 5.87399 7.83987L11.054 1.20987C11.1662 1.06608 11.3097 0.949757 11.4737 0.869754C11.6376 0.789751 11.8176 0.748169 12 0.748169C12.1824 0.748169 12.3624 0.789751 12.5263 0.869754C12.6902 0.949757 12.8338 1.06608 12.946 1.20987L18.126 7.83987C19.3212 9.37016 20.1273 11.1676 20.475 13.078C20.8226 14.9884 20.7015 16.9546 20.122 18.8079V18.8079Z" stroke="#160647" stroke-width="1.5" stroke-linecap="round" stroke-linejoin="round"/>
<path d="M12 19.9999C10.9391 19.9999 9.92172 19.5784 9.17157 18.8283C8.42143 18.0782 8 17.0607 8 15.9999C8 14.939 8.42143 13.9216 9.17157 13.1715C9.92172 12.4213 10.9391 11.9999 12 11.9999C13.0609 11.9999 14.0783 12.4213 14.8284 13.1715C15.5786 13.9216 16 14.939 16 15.9999C16 17.0607 15.5786 18.0782 14.8284 18.8283C14.0783 19.5784 13.0609 19.9999 12 19.9999Z" stroke="#160647" stroke-width="1.5" stroke-linecap="round" stroke-linejoin="round"/>
</svg>
